<?xml version="1.0" encoding="UTF-8" standalone="no"?>
<!DOCTYPE svg PUBLIC "-//W3C//DTD SVG 1.1//EN"
 "http://www.w3.org/Graphics/SVG/1.1/DTD/svg11.dtd">
<!-- Generated by graphviz version 2.43.0 (0)
 -->
<!-- Title: G Pages: 1 -->
<svg width="381pt" height="471pt"
 viewBox="0.00 0.00 380.63 471.00" xmlns="http://www.w3.org/2000/svg" xmlns:xlink="http://www.w3.org/1999/xlink">
<g id="graph0" class="graph" transform="scale(1 1) rotate(0) translate(4 467)">
<title>G</title>
<polygon fill="white" stroke="transparent" points="-4,4 -4,-467 376.63,-467 376.63,4 -4,4"/>
<g id="clust1" class="cluster">
<title>cluster_Global</title>
<path fill="none" stroke="gray" d="M20,-44C20,-44 352.63,-44 352.63,-44 358.63,-44 364.63,-50 364.63,-56 364.63,-56 364.63,-443 364.63,-443 364.63,-449 358.63,-455 352.63,-455 352.63,-455 20,-455 20,-455 14,-455 8,-449 8,-443 8,-443 8,-56 8,-56 8,-50 14,-44 20,-44"/>
<text text-anchor="middle" x="186.32" y="-442.2" font-family="Times,serif" font-size="11.00" fill="gray">Global</text>
</g>
<g id="clust2" class="cluster">
<title>cluster_\whikloj</title>
<path fill="none" stroke="gray" d="M28,-52C28,-52 344.63,-52 344.63,-52 350.63,-52 356.63,-58 356.63,-64 356.63,-64 356.63,-416 356.63,-416 356.63,-422 350.63,-428 344.63,-428 344.63,-428 28,-428 28,-428 22,-428 16,-422 16,-416 16,-416 16,-64 16,-64 16,-58 22,-52 28,-52"/>
<text text-anchor="middle" x="186.32" y="-415.2" font-family="Times,serif" font-size="11.00" fill="gray">whikloj</text>
</g>
<g id="clust3" class="cluster">
<title>cluster_\whikloj\BagItTools</title>
<path fill="none" stroke="gray" d="M36,-60C36,-60 336.63,-60 336.63,-60 342.63,-60 348.63,-66 348.63,-72 348.63,-72 348.63,-389 348.63,-389 348.63,-395 342.63,-401 336.63,-401 336.63,-401 36,-401 36,-401 30,-401 24,-395 24,-389 24,-389 24,-72 24,-72 24,-66 30,-60 36,-60"/>
<text text-anchor="middle" x="186.32" y="-388.2" font-family="Times,serif" font-size="11.00" fill="gray">BagItTools</text>
</g>
<!-- \\whikloj\\BagItTools\\BagItException -->
<g id="node1" class="node">
<title>\\whikloj\\BagItTools\\BagItException</title>
<polygon fill="none" stroke="black" points="337.54,-104 228.71,-104 228.71,-68 337.54,-68 337.54,-104"/>
<text text-anchor="middle" x="283.13" y="-82.7" font-family="Courier,monospace" font-size="11.00">BagItException</text>
</g>
<!-- \\Exception -->
<g id="node8" class="node">
<title>\\Exception</title>
<ellipse fill="none" stroke="black" cx="92.81" cy="-18" rx="40.62" ry="18"/>
<text text-anchor="middle" x="92.81" y="-13.8" font-family="Times,serif" font-size="14.00" fill="gray">xception</text>
</g>
<!-- \\whikloj\\BagItTools\\BagItException&#45;&gt;\\Exception -->
<g id="edge1" class="edge">
<title>\\whikloj\\BagItTools\\BagItException&#45;&gt;\\Exception</title>
<path fill="none" stroke="black" d="M232.15,-67.96C201.65,-56.94 163.13,-43.03 134.49,-32.69"/>
<polygon fill="none" stroke="black" points="135.4,-29.3 124.8,-29.19 133.02,-35.88 135.4,-29.3"/>
</g>
<!-- \\whikloj\\BagItTools\\BagUtils -->
<g id="node2" class="node">
<title>\\whikloj\\BagItTools\\BagUtils</title>
<polygon fill="none" stroke="black" points="317.43,-320 248.82,-320 248.82,-284 317.43,-284 317.43,-320"/>
<text text-anchor="middle" x="283.13" y="-298.7" font-family="Courier,monospace" font-size="11.00">BagUtils</text>
</g>
<!-- \\whikloj\\BagItTools\\TagManifest -->
<g id="node3" class="node">
<title>\\whikloj\\BagItTools\\TagManifest</title>
<polygon fill="none" stroke="black" points="327.24,-374 239.01,-374 239.01,-338 327.24,-338 327.24,-374"/>
<text text-anchor="middle" x="283.13" y="-352.7" font-family="Courier,monospace" font-size="11.00">TagManifest</text>
</g>
<!-- \\whikloj\\BagItTools\\AbstractManifest -->
<g id="node6" class="node">
<title>\\whikloj\\BagItTools\\AbstractManifest</title>
<polygon fill="none" stroke="black" points="153.43,-320 32.19,-320 32.19,-284 153.43,-284 153.43,-320"/>
<text text-anchor="start" x="59.8" y="-304.2" font-family="Courier,monospace" font-size="11.00">«abstract»</text>
<text text-anchor="start" x="40" y="-293.2" font-family="Courier,monospace" font-size="11.00">AbstractManifest</text>
</g>
<!-- \\whikloj\\BagItTools\\TagManifest&#45;&gt;\\whikloj\\BagItTools\\AbstractManifest -->
<g id="edge2" class="edge">
<title>\\whikloj\\BagItTools\\TagManifest&#45;&gt;\\whikloj\\BagItTools\\AbstractManifest</title>
<path fill="none" stroke="black" d="M238.92,-343.61C216.59,-337.21 188.77,-329.23 163.49,-321.98"/>
<polygon fill="none" stroke="black" points="164.16,-318.53 153.58,-319.14 162.23,-325.26 164.16,-318.53"/>
</g>
<!-- \\whikloj\\BagItTools\\Bag -->
<g id="node4" class="node">
<title>\\whikloj\\BagItTools\\Bag</title>
<polygon fill="none" stroke="black" points="310.13,-212 256.13,-212 256.13,-176 310.13,-176 310.13,-212"/>
<text text-anchor="middle" x="283.13" y="-190.7" font-family="Courier,monospace" font-size="11.00">Bag</text>
</g>
<!-- \\whikloj\\BagItTools\\Fetch -->
<g id="node5" class="node">
<title>\\whikloj\\BagItTools\\Fetch</title>
<polygon fill="none" stroke="black" points="310.13,-158 256.13,-158 256.13,-122 310.13,-122 310.13,-158"/>
<text text-anchor="middle" x="283.13" y="-136.7" font-family="Courier,monospace" font-size="11.00">Fetch</text>
</g>
<!-- \\whikloj\\BagItTools\\PayloadManifest -->
<g id="node7" class="node">
<title>\\whikloj\\BagItTools\\PayloadManifest</title>
<polygon fill="none" stroke="black" points="340.64,-266 225.61,-266 225.61,-230 340.64,-230 340.64,-266"/>
<text text-anchor="middle" x="283.13" y="-244.7" font-family="Courier,monospace" font-size="11.00">PayloadManifest</text>
</g>
<!-- \\whikloj\\BagItTools\\PayloadManifest&#45;&gt;\\whikloj\\BagItTools\\AbstractManifest -->
<g id="edge3" class="edge">
<title>\\whikloj\\BagItTools\\PayloadManifest&#45;&gt;\\whikloj\\BagItTools\\AbstractManifest</title>
<path fill="none" stroke="black" d="M225.37,-264.28C205.92,-269.85 183.92,-276.16 163.56,-282"/>
<polygon fill="none" stroke="black" points="162.37,-278.7 153.72,-284.82 164.3,-285.43 162.37,-278.7"/>
</g>
</g>
</svg>
