<?xml version="1.0" encoding="UTF-8" standalone="no"?>
<!DOCTYPE svg PUBLIC "-//W3C//DTD SVG 1.1//EN"
 "http://www.w3.org/Graphics/SVG/1.1/DTD/svg11.dtd">
<!-- Generated by graphviz version 2.47.3 (20210619.1520)
 -->
<!-- Title: G Pages: 1 -->
<svg width="570pt" height="572pt"
 viewBox="0.00 0.00 570.29 572.00" xmlns="http://www.w3.org/2000/svg" xmlns:xlink="http://www.w3.org/1999/xlink">
<g id="graph0" class="graph" transform="scale(1 1) rotate(0) translate(4 568)">
<title>G</title>
<polygon fill="white" stroke="transparent" points="-4,4 -4,-568 566.29,-568 566.29,4 -4,4"/>
<g id="clust1" class="cluster">
<title>cluster_Global</title>
<path fill="none" stroke="gray" d="M20,-8C20,-8 542.29,-8 542.29,-8 548.29,-8 554.29,-14 554.29,-20 554.29,-20 554.29,-544 554.29,-544 554.29,-550 548.29,-556 542.29,-556 542.29,-556 20,-556 20,-556 14,-556 8,-550 8,-544 8,-544 8,-20 8,-20 8,-14 14,-8 20,-8"/>
<text text-anchor="middle" x="281.15" y="-543.2" font-family="Times,serif" font-size="11.00" fill="gray">Global</text>
</g>
<g id="clust2" class="cluster">
<title>cluster_\whikloj</title>
<path fill="none" stroke="gray" d="M175.29,-16C175.29,-16 534.29,-16 534.29,-16 540.29,-16 546.29,-22 546.29,-28 546.29,-28 546.29,-328 546.29,-328 546.29,-334 540.29,-340 534.29,-340 534.29,-340 175.29,-340 175.29,-340 169.29,-340 163.29,-334 163.29,-328 163.29,-328 163.29,-28 163.29,-28 163.29,-22 169.29,-16 175.29,-16"/>
<text text-anchor="middle" x="354.79" y="-327.2" font-family="Times,serif" font-size="11.00" fill="gray">whikloj</text>
</g>
<g id="clust3" class="cluster">
<title>cluster_\whikloj\BagItTools</title>
<path fill="none" stroke="gray" d="M183.29,-24C183.29,-24 526.29,-24 526.29,-24 532.29,-24 538.29,-30 538.29,-36 538.29,-36 538.29,-300 538.29,-300 538.29,-306 532.29,-312 526.29,-312 526.29,-312 183.29,-312 183.29,-312 177.29,-312 171.29,-306 171.29,-300 171.29,-300 171.29,-36 171.29,-36 171.29,-30 177.29,-24 183.29,-24"/>
<text text-anchor="middle" x="354.79" y="-299.2" font-family="Times,serif" font-size="11.00" fill="gray">BagItTools</text>
</g>
<g id="clust4" class="cluster">
<title>cluster_\whikloj\BagItTools\Exceptions</title>
<path fill="none" stroke="gray" d="M191.29,-132C191.29,-132 518.29,-132 518.29,-132 524.29,-132 530.29,-138 530.29,-144 530.29,-144 530.29,-192 530.29,-192 530.29,-198 524.29,-204 518.29,-204 518.29,-204 191.29,-204 191.29,-204 185.29,-204 179.29,-198 179.29,-192 179.29,-192 179.29,-144 179.29,-144 179.29,-138 185.29,-132 191.29,-132"/>
<text text-anchor="middle" x="354.79" y="-191.2" font-family="Times,serif" font-size="11.00" fill="gray">Exceptions</text>
</g>
<g id="clust5" class="cluster">
<title>cluster_\whikloj\BagItTools\Commands</title>
<path fill="none" stroke="gray" d="M394.79,-212C394.79,-212 504.79,-212 504.79,-212 510.79,-212 516.79,-218 516.79,-224 516.79,-224 516.79,-272 516.79,-272 516.79,-278 510.79,-284 504.79,-284 504.79,-284 394.79,-284 394.79,-284 388.79,-284 382.79,-278 382.79,-272 382.79,-272 382.79,-224 382.79,-224 382.79,-218 388.79,-212 394.79,-212"/>
<text text-anchor="middle" x="449.79" y="-271.2" font-family="Times,serif" font-size="11.00" fill="gray">Commands</text>
</g>
<g id="clust6" class="cluster">
<title>cluster_Global\Symfony</title>
<path fill="none" stroke="gray" d="M174.7,-348C174.7,-348 310.89,-348 310.89,-348 316.89,-348 322.89,-354 322.89,-360 322.89,-360 322.89,-516 322.89,-516 322.89,-522 316.89,-528 310.89,-528 310.89,-528 174.7,-528 174.7,-528 168.7,-528 162.7,-522 162.7,-516 162.7,-516 162.7,-360 162.7,-360 162.7,-354 168.7,-348 174.7,-348"/>
<text text-anchor="middle" x="242.79" y="-515.2" font-family="Times,serif" font-size="11.00" fill="gray">Symfony</text>
</g>
<g id="clust7" class="cluster">
<title>cluster_Global\Symfony\Component</title>
<path fill="none" stroke="gray" d="M182.7,-356C182.7,-356 302.89,-356 302.89,-356 308.89,-356 314.89,-362 314.89,-368 314.89,-368 314.89,-488 314.89,-488 314.89,-494 308.89,-500 302.89,-500 302.89,-500 182.7,-500 182.7,-500 176.7,-500 170.7,-494 170.7,-488 170.7,-488 170.7,-368 170.7,-368 170.7,-362 176.7,-356 182.7,-356"/>
<text text-anchor="middle" x="242.79" y="-487.2" font-family="Times,serif" font-size="11.00" fill="gray">Component</text>
</g>
<g id="clust8" class="cluster">
<title>cluster_Global\Symfony\Component\Console</title>
<path fill="none" stroke="gray" d="M190.7,-364C190.7,-364 294.89,-364 294.89,-364 300.89,-364 306.89,-370 306.89,-376 306.89,-376 306.89,-460 306.89,-460 306.89,-466 300.89,-472 294.89,-472 294.89,-472 190.7,-472 190.7,-472 184.7,-472 178.7,-466 178.7,-460 178.7,-460 178.7,-376 178.7,-376 178.7,-370 184.7,-364 190.7,-364"/>
<text text-anchor="middle" x="242.79" y="-459.2" font-family="Times,serif" font-size="11.00" fill="gray">Console</text>
</g>
<g id="clust9" class="cluster">
<title>cluster_Global\Symfony\Component\Console\Command</title>
<path fill="none" stroke="gray" d="M198.7,-372C198.7,-372 286.89,-372 286.89,-372 292.89,-372 298.89,-378 298.89,-384 298.89,-384 298.89,-432 298.89,-432 298.89,-438 292.89,-444 286.89,-444 286.89,-444 198.7,-444 198.7,-444 192.7,-444 186.7,-438 186.7,-432 186.7,-432 186.7,-384 186.7,-384 186.7,-378 192.7,-372 198.7,-372"/>
<text text-anchor="middle" x="242.79" y="-431.2" font-family="Times,serif" font-size="11.00" fill="gray">Command</text>
</g>
<!-- \\whikloj\\BagItTools\\Exceptions\\FilesystemException -->
<g id="node1" class="node">
<title>\\whikloj\\BagItTools\\Exceptions\\FilesystemException</title>
<polygon fill="none" stroke="black" points="522.29,-176 377.29,-176 377.29,-140 522.29,-140 522.29,-176"/>
<text text-anchor="middle" x="449.79" y="-155.2" font-family="Courier,monospace" font-size="11.00">FilesystemException</text>
</g>
<!-- \\whikloj\\BagItTools\\Exceptions\\BagItException -->
<g id="node2" class="node">
<title>\\whikloj\\BagItTools\\Exceptions\\BagItException</title>
<polygon fill="none" stroke="black" points="298.29,-176 187.29,-176 187.29,-140 298.29,-140 298.29,-176"/>
<text text-anchor="middle" x="242.79" y="-155.2" font-family="Courier,monospace" font-size="11.00">BagItException</text>
</g>
<!-- \\whikloj\\BagItTools\\Exceptions\\FilesystemException&#45;&gt;\\whikloj\\BagItTools\\Exceptions\\BagItException -->
<g id="edge1" class="edge">
<title>\\whikloj\\BagItTools\\Exceptions\\FilesystemException&#45;&gt;\\whikloj\\BagItTools\\Exceptions\\BagItException</title>
<path fill="none" stroke="black" d="M377.09,-158C354.77,-158 330.29,-158 308.47,-158"/>
<polygon fill="none" stroke="black" points="308.32,-154.5 298.32,-158 308.32,-161.5 308.32,-154.5"/>
</g>
<!-- Exception -->
<g id="node8" class="node">
<title>Exception</title>
<ellipse fill="none" stroke="black" cx="62.15" cy="-158" rx="46.29" ry="18"/>
<text text-anchor="middle" x="62.15" y="-154.3" font-family="Times,serif" font-size="14.00" fill="gray">Exception</text>
</g>
<!-- \\whikloj\\BagItTools\\Exceptions\\BagItException&#45;&gt;Exception -->
<g id="edge4" class="edge">
<title>\\whikloj\\BagItTools\\Exceptions\\BagItException&#45;&gt;Exception</title>
<path fill="none" stroke="black" d="M187.22,-158C165.43,-158 140.37,-158 118.5,-158"/>
<polygon fill="none" stroke="black" points="118.38,-154.5 108.38,-158 118.38,-161.5 118.38,-154.5"/>
</g>
<!-- \\whikloj\\BagItTools\\Commands\\ValidateCommand -->
<g id="node3" class="node">
<title>\\whikloj\\BagItTools\\Commands\\ValidateCommand</title>
<polygon fill="none" stroke="black" points="508.79,-256 390.79,-256 390.79,-220 508.79,-220 508.79,-256"/>
<text text-anchor="middle" x="449.79" y="-235.2" font-family="Courier,monospace" font-size="11.00">ValidateCommand</text>
</g>
<!-- Command -->
<g id="node7" class="node">
<title>Command</title>
<ellipse fill="none" stroke="black" cx="242.79" cy="-398" rx="48.19" ry="18"/>
<text text-anchor="middle" x="242.79" y="-394.3" font-family="Times,serif" font-size="14.00" fill="gray">Command</text>
</g>
<!-- \\whikloj\\BagItTools\\Commands\\ValidateCommand&#45;&gt;Command -->
<g id="edge3" class="edge">
<title>\\whikloj\\BagItTools\\Commands\\ValidateCommand&#45;&gt;Command</title>
<path fill="none" stroke="black" d="M425.67,-256.04C388.06,-285.4 313.68,-343.45 272.65,-375.47"/>
<polygon fill="none" stroke="black" points="270.4,-372.79 264.67,-381.7 274.71,-378.31 270.4,-372.79"/>
</g>
<!-- \\whikloj\\BagItTools\\TagManifest -->
<g id="node4" class="node">
<title>\\whikloj\\BagItTools\\TagManifest</title>
<polygon fill="none" stroke="black" points="495.29,-122 404.29,-122 404.29,-86 495.29,-86 495.29,-122"/>
<text text-anchor="middle" x="449.79" y="-101.2" font-family="Courier,monospace" font-size="11.00">TagManifest</text>
</g>
<!-- \\whikloj\\BagItTools\\AbstractManifest -->
<g id="node5" class="node">
<title>\\whikloj\\BagItTools\\AbstractManifest</title>
<polygon fill="none" stroke="black" points="305.29,-95 180.29,-95 180.29,-59 305.29,-59 305.29,-95"/>
<text text-anchor="start" x="208.79" y="-80.2" font-family="Courier,monospace" font-size="11.00">«abstract»</text>
<text text-anchor="start" x="188.29" y="-68.2" font-family="Courier,monospace" font-size="11.00">AbstractManifest</text>
</g>
<!-- \\whikloj\\BagItTools\\TagManifest&#45;&gt;\\whikloj\\BagItTools\\AbstractManifest -->
<g id="edge2" class="edge">
<title>\\whikloj\\BagItTools\\TagManifest&#45;&gt;\\whikloj\\BagItTools\\AbstractManifest</title>
<path fill="none" stroke="black" d="M404.06,-98.11C378.24,-94.71 345.16,-90.35 315.76,-86.48"/>
<polygon fill="none" stroke="black" points="315.91,-82.97 305.54,-85.13 315,-89.91 315.91,-82.97"/>
</g>
<!-- \\whikloj\\BagItTools\\PayloadManifest -->
<g id="node6" class="node">
<title>\\whikloj\\BagItTools\\PayloadManifest</title>
<polygon fill="none" stroke="black" points="508.79,-68 390.79,-68 390.79,-32 508.79,-32 508.79,-68"/>
<text text-anchor="middle" x="449.79" y="-47.2" font-family="Courier,monospace" font-size="11.00">PayloadManifest</text>
</g>
<!-- \\whikloj\\BagItTools\\PayloadManifest&#45;&gt;\\whikloj\\BagItTools\\AbstractManifest -->
<g id="edge5" class="edge">
<title>\\whikloj\\BagItTools\\PayloadManifest&#45;&gt;\\whikloj\\BagItTools\\AbstractManifest</title>
<path fill="none" stroke="black" d="M390.6,-57.66C367.19,-60.75 339.96,-64.33 315.36,-67.57"/>
<polygon fill="none" stroke="black" points="314.81,-64.12 305.36,-68.89 315.73,-71.06 314.81,-64.12"/>
</g>
</g>
</svg>
